<?xml version="1.0" standalone="no"?>
<!DOCTYPE svg PUBLIC "-//W3C//DTD SVG 20010904//EN"
 "http://www.w3.org/TR/2001/REC-SVG-20010904/DTD/svg10.dtd">
<svg version="1.0" xmlns="http://www.w3.org/2000/svg"
 width="512.000000pt" height="512.000000pt" viewBox="0 0 512.000000 512.000000"
 preserveAspectRatio="xMidYMid meet">
<metadata>
Created by potrace 1.16, written by Peter Selinger 2001-2019
</metadata>
<g transform="translate(0.000000,512.000000) scale(0.100000,-0.100000)"
fill="#000000" stroke="none">
<path d="M187 4932 c-147 -147 -188 -194 -185 -211 2 -18 40 15 213 189 175
175 206 210 185 210 -19 0 -69 -44 -213 -188z"/>
<path d="M287 4832 c-227 -227 -288 -294 -285 -311 2 -17 59 35 313 289 255
255 305 310 285 310 -20 0 -89 -64 -313 -288z"/>
<path d="M387 4732 c-307 -307 -388 -393 -385 -411 2 -17 79 55 413 389 335
335 405 410 385 410 -20 0 -109 -84 -413 -388z"/>
<path d="M487 4632 c-388 -388 -488 -493 -485 -511 2 -17 99 74 513 489 415
415 505 510 485 510 -20 0 -129 -104 -513 -488z"/>
<path d="M587 4532 c-468 -468 -588 -593 -585 -611 2 -17 118 94 613 589 495
495 605 610 585 610 -20 0 -149 -124 -613 -588z"/>
<path d="M687 4432 c-548 -548 -688 -693 -685 -711 2 -17 138 114 713 689 575
575 705 710 685 710 -20 0 -169 -144 -713 -688z"/>
<path d="M787 4332 c-629 -629 -788 -793 -785 -811 2 -17 158 133 813 789 655
655 805 810 785 810 -20 0 -189 -164 -813 -788z"/>
<path d="M887 4232 c-709 -709 -888 -893 -885 -911 2 -17 177 153 913 889 735
735 905 910 885 910 -20 0 -209 -184 -913 -888z"/>
<path d="M987 4132 c-789 -789 -988 -993 -985 -1011 2 -17 197 173 1013 989
815 815 1005 1010 985 1010 -20 0 -229 -204 -1013 -988z"/>
<path d="M1217 4162 l-958 -958 -69 -23 c-73 -25 -88 -44 -43 -56 26 -6 25 -8
-60 -93 -62 -62 -87 -94 -87 -112 0 -21 15 -10 104 79 l103 103 57 -18 57 -18
-161 -161 c-120 -121 -160 -166 -160 -185 0 -21 30 5 178 152 l177 178 53 -17
c28 -9 52 -19 52 -22 0 -4 -103 -110 -230 -236 -177 -177 -230 -236 -230 -255
0 -21 44 18 253 227 l252 251 40 -14 c22 -8 47 -17 54 -20 10 -3 -86 -106
-292 -312 -238 -238 -307 -313 -307 -332 0 -20 59 34 328 302 l327 326 53 -21
54 -20 -381 -381 c-297 -297 -381 -387 -381 -406 0 -20 74 49 400 375 l399
399 56 -19 56 -19 -455 -455 c-357 -357 -456 -461 -456 -481 0 -20 89 64 474
449 l474 473 51 -17 c28 -9 51 -20 51 -23 0 -4 -236 -243 -525 -532 -413 -413
-525 -530 -525 -550 0 -20 103 78 548 522 l547 548 53 -17 c28 -9 52 -19 52
-22 0 -4 -270 -276 -600 -606 -473 -473 -600 -605 -600 -625 0 -20 118 92 623
597 l622 621 40 -14 c22 -8 47 -17 55 -20 9 -3 -212 -231 -663 -682 -534 -534
-677 -682 -677 -702 0 -20 133 108 698 671 l697 696 53 -20 53 -20 -43 -44
c-31 -32 -49 -42 -63 -39 -11 3 -29 8 -40 11 -18 6 -20 2 -17 -42 l3 -48 -670
-670 c-530 -529 -671 -675 -671 -695 0 -20 127 102 670 645 l670 670 0 -75 0
-75 -670 -670 c-529 -529 -670 -675 -670 -695 0 -20 127 102 670 645 l670 670
0 -75 0 -75 -670 -670 c-529 -529 -670 -675 -670 -695 0 -20 127 102 670 645
l670 670 0 -75 0 -75 -670 -670 c-529 -529 -670 -675 -670 -695 0 -20 127 102
670 645 658 658 670 669 670 633 0 -27 6 -41 22 -53 22 -15 12 -26 -670 -708
-546 -546 -692 -697 -692 -717 0 -20 136 111 709 684 l710 710 51 -24 51 -24
-760 -760 c-601 -601 -761 -766 -761 -786 0 -20 150 125 779 754 l778 778 58
-17 58 -17 -809 -809 c-653 -653 -804 -809 -784 -809 20 0 194 168 830 805
l805 804 45 -10 c25 -6 52 -13 60 -15 9 -3 -271 -290 -775 -794 -639 -639
-785 -790 -765 -790 20 0 189 164 810 785 l785 786 60 -7 c33 -3 62 -8 65 -11
2 -2 -344 -352 -770 -778 -626 -626 -770 -775 -750 -775 20 0 188 163 800 774
l775 775 69 -6 68 -6 -768 -768 c-622 -622 -764 -769 -744 -769 20 0 185 160
790 765 l765 765 75 0 75 0 -765 -765 c-619 -619 -760 -765 -740 -765 20 0
185 160 790 765 l765 765 75 0 75 0 -765 -765 c-619 -619 -760 -765 -740 -765
20 0 185 160 789 764 l765 765 78 3 78 3 -767 -767 c-621 -621 -763 -768 -743
-768 20 0 186 160 794 769 759 759 770 769 815 775 25 4 64 9 86 12 38 5 7
-28 -740 -775 -631 -632 -775 -781 -755 -781 20 0 190 165 815 790 434 435
797 790 805 790 9 0 54 11 100 24 l84 25 -815 -815 c-658 -658 -809 -814 -789
-814 20 0 198 173 855 830 672 672 841 837 888 862 90 49 147 103 147 141 0
29 54 86 545 577 l545 545 0 -75 0 -75 -1402 -1402 c-1128 -1128 -1398 -1403
-1378 -1403 20 0 308 283 1402 1377 l1378 1378 0 -75 0 -75 -1302 -1302
c-1048 -1048 -1298 -1303 -1278 -1303 20 0 288 263 1302 1277 l1278 1278 0
-75 0 -75 -1202 -1202 c-968 -968 -1198 -1203 -1178 -1203 20 0 268 243 1202
1177 l1178 1178 0 -75 0 -75 -1102 -1102 c-888 -888 -1098 -1103 -1078 -1103
20 0 248 223 1102 1077 l1078 1078 0 -77 0 -76 -45 -27 c-25 -14 -57 -45 -72
-68 -15 -23 -445 -462 -957 -974 -751 -753 -926 -933 -906 -933 20 0 212 187
922 897 879 879 898 897 898 861 0 -20 5 -49 11 -64 10 -27 -7 -45 -823 -861
-673 -673 -828 -833 -808 -833 20 0 195 170 840 815 448 448 818 815 821 815
4 0 14 -11 23 -26 38 -56 45 -48 -758 -851 -607 -609 -746 -753 -726 -753 20
0 175 150 738 712 l712 713 -36 -110 -36 -110 -602 -602 c-488 -489 -596 -603
-576 -603 20 0 152 127 625 600 l600 600 75 0 75 0 -600 -600 c-487 -487 -595
-600 -575 -600 20 0 152 127 625 600 l600 600 75 0 75 0 -600 -600 c-487 -487
-595 -600 -575 -600 20 0 152 127 625 600 l600 600 62 0 c35 0 63 4 63 9 0 5
-7 26 -16 46 l-16 38 61 61 c41 42 61 69 61 86 0 22 -8 17 -68 -43 l-69 -68
-22 52 -22 53 91 91 c64 65 90 97 90 115 0 21 -14 11 -98 -73 l-97 -97 -21 54
-21 54 118 118 c89 88 119 125 119 144 0 22 -10 15 -82 -58 l-83 -82 3 79 3
78 80 79 c57 56 79 86 79 104 0 22 -11 14 -87 -62 l-88 -87 -34 40 -34 41 122
122 c89 89 121 128 121 146 0 21 -21 4 -137 -111 -137 -134 -138 -135 -170
-125 -28 9 -33 15 -33 41 0 26 24 54 170 200 129 129 170 176 170 195 0 21
-27 -2 -170 -145 l-170 -170 0 75 0 75 170 170 c129 129 170 176 170 195 0 21
-27 -2 -170 -145 l-170 -170 0 75 0 75 170 170 c129 129 170 176 170 195 0 21
-27 -2 -170 -145 l-170 -170 0 75 0 75 170 170 c129 129 170 176 170 195 0 21
-27 -2 -170 -145 l-170 -170 0 75 0 75 170 170 c129 129 170 176 170 195 0 21
-27 -2 -170 -145 l-170 -170 0 75 0 75 170 170 c129 129 170 176 170 195 0 21
-27 -2 -170 -145 -100 -100 -170 -163 -170 -153 0 11 -14 21 -40 29 -22 7 -40
15 -40 18 0 3 95 101 210 216 161 161 210 216 210 235 0 21 -40 -15 -233 -208
-225 -225 -234 -233 -260 -222 -15 5 -39 15 -54 20 -27 11 -23 15 260 298 222
222 287 293 287 312 0 20 -55 -30 -307 -282 l-308 -306 -40 14 c-22 8 -47 17
-54 20 -10 3 105 125 347 367 282 282 362 368 362 387 0 20 -70 -45 -380 -355
l-379 -379 -57 18 -57 18 437 437 c341 341 436 441 436 461 0 20 -85 -60 -454
-429 l-453 -453 -57 18 -57 18 511 511 c400 400 510 515 510 535 0 20 -100
-75 -527 -502 l-528 -528 -52 17 c-29 9 -53 19 -53 22 0 4 261 267 580 586
457 457 580 585 580 605 0 20 -114 -89 -603 -578 l-603 -603 -34 14 c-19 8
-44 17 -55 21 -16 6 90 116 638 664 518 518 657 662 657 682 0 20 -129 -104
-677 -652 l-678 -677 -54 21 -54 20 732 732 c577 577 731 736 731 756 0 20
-144 -119 -750 -725 l-749 -749 -57 18 -57 18 759 759 c613 613 754 759 734
759 -20 0 -183 -158 -776 -751 l-751 -751 -57 18 -57 18 733 733 c592 592 728
733 708 733 -20 0 -177 -153 -750 -725 l-725 -725 -50 16 c-28 9 -52 19 -55
21 -2 2 313 321 700 708 570 570 700 705 680 705 -20 0 -173 -148 -725 -700
l-701 -701 -34 14 c-19 8 -44 17 -55 21 -16 6 94 120 660 686 550 550 675 680
655 680 -20 0 -168 -143 -700 -674 l-675 -674 -53 21 -54 20 654 654 c528 528
648 653 628 653 -20 0 -162 -137 -672 -647 l-647 -647 -56 19 -56 19 628 628
c508 508 623 628 603 628 -20 0 -157 -132 -646 -621 l-621 -621 -57 18 -57 18
603 603 c488 488 598 603 578 603 -20 0 -151 -127 -620 -595 l-595 -595 -50
16 c-28 9 -52 19 -55 21 -2 2 254 262 570 578 466 466 570 575 550 575 -20 0
-149 -124 -605 -579 l-580 -578 -95 -33 c-52 -18 -102 -35 -110 -38 -8 -2 262
273 600 612 498 499 610 616 590 616 -20 0 -160 -135 -660 -634 l-635 -633
-90 -31 c-49 -17 -99 -34 -110 -38 -11 -3 281 295 650 665 542 543 665 671
645 671 -20 0 -170 -145 -710 -685 l-686 -686 -114 -40 -115 -40 725 726 c586
586 720 725 700 725 -20 0 -180 -155 -765 -740 l-740 -740 -115 -40 -115 -41
780 781 c630 630 775 780 755 780 -20 0 -192 -167 -820 -795 l-795 -794 -115
-41 -115 -40 835 835 c674 674 830 835 810 835 -20 0 -203 -178 -875 -850
l-850 -849 -115 -40 -114 -40 889 889 c718 718 885 890 865 890 -20 0 -214
-189 -930 -904 l-905 -904 -103 -36 c-57 -20 -106 -36 -110 -36 -4 0 416 423
933 940 759 759 935 940 915 940 -20 0 -223 -198 -983 -958z m3443 -1120 c0
-36 -19 -56 -545 -582 l-545 -545 0 75 0 75 490 490 c427 427 496 492 538 507
64 22 62 23 62 -20z m-635 -472 l-450 -450 -3 72 -3 72 337 337 338 338 110
39 c61 22 113 40 116 41 3 1 -198 -202 -445 -449z m-155 45 l-295 -295 -3 72
-3 72 183 183 184 184 109 39 c61 21 112 39 115 39 3 1 -128 -132 -290 -294z
m-155 45 c-136 -137 -140 -140 -143 -110 -4 35 -5 35 -62 15 -24 -8 -45 -14
-46 -12 -2 2 35 41 81 87 81 80 88 85 187 121 57 21 107 38 113 38 5 1 -53
-62 -130 -139z m-258 -58 l-87 -88 -112 -37 -112 -37 89 90 c88 88 91 90 190
124 55 19 104 35 110 35 5 1 -30 -39 -78 -87z m-302 -102 c-90 -89 -90 -89
-205 -130 l-115 -41 89 90 c89 89 91 91 200 130 61 22 113 40 116 40 3 1 -36
-39 -85 -89z m-309 -109 c-87 -87 -89 -89 -194 -125 -58 -20 -107 -35 -108
-33 -2 2 35 41 81 87 81 80 88 85 187 121 57 20 107 37 113 38 5 1 -30 -39
-79 -88z m-307 -107 l-86 -86 -57 18 -56 18 42 43 c23 24 52 43 63 43 12 0 52
11 91 24 38 14 73 25 79 25 5 1 -29 -38 -76 -85z"/>
<path d="M4485 630 c-511 -511 -625 -630 -605 -630 37 0 1243 1207 1238 1239
-2 17 -122 -98 -633 -609z"/>
<path d="M4585 530 c-431 -431 -525 -530 -505 -530 37 0 1043 1007 1038 1039
-2 17 -103 -78 -533 -509z"/>
<path d="M4685 430 c-351 -351 -425 -430 -405 -430 37 0 843 807 838 839 -2
17 -83 -59 -433 -409z"/>
<path d="M4785 330 c-271 -271 -325 -330 -305 -330 37 0 643 607 638 639 -2
17 -63 -39 -333 -309z"/>
<path d="M4885 230 c-191 -191 -226 -230 -205 -230 37 0 443 407 438 439 -2
18 -44 -19 -233 -209z"/>
</g>
</svg>
