<?xml version="1.0" standalone="no"?>
<!DOCTYPE svg PUBLIC "-//W3C//DTD SVG 20010904//EN"
 "http://www.w3.org/TR/2001/REC-SVG-20010904/DTD/svg10.dtd">
<svg version="1.0" xmlns="http://www.w3.org/2000/svg"
 width="512.000000pt" height="512.000000pt" viewBox="0 0 512.000000 512.000000"
 preserveAspectRatio="xMidYMid meet">

<g transform="translate(0.000000,512.000000) scale(0.100000,-0.100000)"
fill="#000000" stroke="none">
<path d="M1453 4483 l-1103 -636 0 -1277 0 -1277 1003 -578 c551 -318 1050
-607 1109 -641 l107 -63 1103 637 1103 638 0 1284 0 1284 -1095 633 c-602 348
-1102 633 -1110 633 -8 0 -511 -287 -1117 -637z m1467 -1208 c72 -36 130 -67
130 -70 0 -10 -700 -1405 -705 -1405 -12 0 -265 131 -265 137 0 8 704 1403
708 1403 1 0 61 -29 132 -65z m-1313 -197 l103 -103 -202 -202 -203 -203 203
-203 202 -202 -105 -105 -105 -105 -308 308 -307 307 305 305 c168 168 307
305 310 305 2 0 51 -46 107 -102z m2333 -813 l-305 -305 -105 105 -105 105
200 200 200 200 -200 200 -200 200 105 105 105 105 305 -305 305 -305 -305
-305z"/>
</g>
</svg>
